<?xml version="1.0" encoding="UTF-8"?>
<svg id="Layer_2" data-name="Layer 2" xmlns="http://www.w3.org/2000/svg" viewBox="0 0 585.74 167.86">
  <defs>
    <style>
      .cls-1 {
        fill: #fff;
      }

      .cls-2 {
        fill: #17325d;
      }

      .cls-3 {
        fill: #13b890;
      }

      .cls-4 {
        fill: #ffac52;
      }
    </style>
  </defs>
  <g id="Layer_1-2" data-name="Layer 1">
    <g>
      <path class="cls-2" d="M165.91,139.27c-10.11,0-18-2.88-23.68-8.64-5.68-5.76-8.51-13.86-8.51-24.3,0-5.63,1.04-10.96,3.11-15.97,2.07-5.01,5.3-9.09,9.7-12.24,4.39-3.15,10.02-4.72,16.9-4.72,6.38,0,11.76,1.47,16.16,4.41,4.39,2.94,7.73,6.77,10.01,11.5,2.28,4.72,3.42,9.86,3.42,15.41,0,1.58-.52,2.9-1.55,3.98-1.04,1.08-2.42,1.62-4.16,1.62h-42.14c.66,5.55,2.78,10.01,6.34,13.36,3.56,3.36,8.7,5.03,15.41,5.03,3.73,0,6.88-.35,9.45-1.06,2.57-.7,5.01-1.64,7.33-2.8,.66-.33,1.41-.5,2.24-.5,1.32,0,2.49,.46,3.48,1.37,.99,.91,1.49,2.07,1.49,3.48,0,.99-.31,1.89-.93,2.67-.62,.79-1.39,1.43-2.3,1.93-2.73,1.58-5.7,2.88-8.89,3.92-3.19,1.03-7.48,1.55-12.86,1.55Zm-20.76-38.16h36.67c-.25-4.31-1.35-7.79-3.29-10.44-1.95-2.65-4.29-4.6-7.02-5.84-2.73-1.24-5.43-1.86-8.08-1.86s-5.34,.62-8.08,1.86-5.06,3.19-6.96,5.84c-1.91,2.65-2.98,6.13-3.23,10.44Z"/>
      <path class="cls-2" d="M224.08,139.27c-3.56,0-6.9-.75-10.01-2.24-3.11-1.49-5.59-3.62-7.46-6.4-1.86-2.78-2.8-6.11-2.8-10.01,0-5.88,2.34-10.71,7.02-14.48,4.68-3.77,11.87-5.66,21.57-5.66h15.04v-.99c0-5.55-1.37-9.51-4.1-11.87-2.73-2.36-6.92-3.54-12.55-3.54-3.48,0-6.53,.31-9.14,.93-2.61,.62-5.08,1.31-7.4,2.05-.66,.17-1.2,.25-1.62,.25-1.24,0-2.32-.45-3.23-1.37-.91-.91-1.37-2.03-1.37-3.36,0-2.24,1.08-3.81,3.23-4.72,2.9-1.24,6.11-2.3,9.63-3.17,3.52-.87,7.48-1.3,11.87-1.3,6.05,0,10.98,1.2,14.79,3.6,3.81,2.4,6.63,5.47,8.45,9.2,1.82,3.73,2.73,7.62,2.73,11.68v35.18c0,1.57-.56,2.9-1.68,3.98-1.12,1.08-2.47,1.62-4.04,1.62s-2.9-.54-3.98-1.62c-1.08-1.08-1.62-2.4-1.62-3.98v-3.23c-2.24,2.32-5.22,4.47-8.95,6.46-3.73,1.99-8.54,2.98-14.42,2.98Zm4.23-9.94c3.89,0,7.54-.95,10.94-2.86,3.4-1.91,6.13-4.06,8.2-6.46v-10.44h-13.55c-5.8,0-10.38,.75-13.73,2.24-3.36,1.49-5.03,4.02-5.03,7.58,0,2.65,.93,4.97,2.8,6.96,1.86,1.99,5.32,2.98,10.38,2.98Z"/>
      <path class="cls-2" d="M283.37,138.65c-1.57,0-2.9-.54-3.98-1.62-1.08-1.08-1.62-2.4-1.62-3.98V52.39c0-1.57,.54-2.92,1.62-4.04,1.08-1.12,2.4-1.68,3.98-1.68s2.92,.56,4.04,1.68c1.12,1.12,1.68,2.47,1.68,4.04v50.84l29.58-27.34c.5-.41,1.06-.79,1.68-1.12,.62-.33,1.3-.5,2.05-.5,2.15,0,3.6,.6,4.35,1.8,.75,1.2,1.12,2.42,1.12,3.67,0,.5-.12,1.1-.37,1.8-.25,.71-.83,1.51-1.74,2.42l-17.9,16.03,22.5,29.83c.83,1.08,1.24,2.2,1.24,3.36,0,1.66-.54,2.98-1.62,3.98-1.08,.99-2.44,1.49-4.1,1.49-1.74,0-3.27-.79-4.6-2.36l-21.38-29.08-10.81,9.82v16.03c0,1.57-.56,2.9-1.68,3.98-1.12,1.08-2.47,1.62-4.04,1.62Z"/>
      <path class="cls-2" d="M351.11,138.65c-1.58,0-2.9-.54-3.98-1.62-1.08-1.08-1.62-2.4-1.62-3.98V52.39c0-1.66,.54-3.02,1.62-4.1,1.08-1.08,2.4-1.62,3.98-1.62,1.66,0,3.02,.54,4.1,1.62,1.08,1.08,1.62,2.45,1.62,4.1v80.67c0,1.57-.54,2.9-1.62,3.98-1.08,1.08-2.45,1.62-4.1,1.62Z"/>
      <path class="cls-2" d="M381.81,61.72c-1.74,0-3.23-.62-4.47-1.86-1.24-1.24-1.86-2.73-1.86-4.47v-.5c0-1.74,.62-3.23,1.86-4.47,1.24-1.24,2.73-1.86,4.47-1.86h.75c1.74,0,3.23,.62,4.47,1.86,1.24,1.24,1.86,2.73,1.86,4.47v.5c0,1.74-.62,3.23-1.86,4.47-1.24,1.24-2.73,1.86-4.47,1.86h-.75Z"/>
      <path class="cls-2" d="M382.05,138.65c-1.57,0-2.9-.54-3.98-1.62-1.08-1.08-1.62-2.4-1.62-3.98v-53.32c0-1.66,.54-3.02,1.62-4.1,1.08-1.08,2.4-1.62,3.98-1.62,1.66,0,3.02,.54,4.1,1.62,1.08,1.08,1.62,2.44,1.62,4.1v53.32c0,1.57-.54,2.9-1.62,3.98-1.08,1.08-2.45,1.62-4.1,1.62Z"/>
      <path class="cls-2" d="M413,138.65c-1.57,0-2.9-.54-3.98-1.62-1.08-1.08-1.62-2.4-1.62-3.98v-53.32c0-1.66,.54-3.02,1.62-4.1,1.08-1.08,2.4-1.62,3.98-1.62s2.92,.54,4.04,1.62c1.12,1.08,1.68,2.44,1.68,4.1v5.1c2.65-2.9,5.78-5.53,9.38-7.89,3.6-2.36,8.18-3.54,13.73-3.54,4.72,0,8.74,1.1,12.06,3.29,3.31,2.2,5.84,5.14,7.58,8.82,1.74,3.69,2.61,7.77,2.61,12.24v35.3c0,1.57-.56,2.9-1.68,3.98-1.12,1.08-2.47,1.62-4.04,1.62s-2.9-.54-3.98-1.62c-1.08-1.08-1.62-2.4-1.62-3.98v-34.06c0-4.72-1.06-8.43-3.17-11.12-2.11-2.69-5.61-4.04-10.5-4.04-4.47,0-8.37,1.2-11.68,3.6-3.32,2.4-6.21,5.18-8.7,8.33v37.29c0,1.57-.56,2.9-1.68,3.98-1.12,1.08-2.47,1.62-4.04,1.62Z"/>
      <path class="cls-2" d="M512.68,167.86c-5.06,0-10.03-.66-14.92-1.99-4.89-1.33-8.78-2.82-11.68-4.47-.58-.42-1.1-.95-1.55-1.62-.46-.66-.68-1.58-.68-2.73,0-1.24,.48-2.4,1.43-3.48,.95-1.08,2.13-1.62,3.54-1.62,.41,0,.81,.04,1.18,.12,.37,.08,.72,.21,1.06,.37,2.65,1.32,5.67,2.44,9.07,3.36,3.4,.91,7.21,1.37,11.43,1.37,12.68,0,19.02-6.75,19.02-20.26v-8.33c-2.57,2.73-5.59,4.99-9.07,6.77-3.48,1.78-7.54,2.67-12.18,2.67-3.48,0-6.98-.66-10.5-1.99-3.52-1.32-6.75-3.31-9.7-5.97-2.94-2.65-5.32-6.01-7.15-10.07-1.82-4.06-2.73-8.82-2.73-14.29s.91-10.23,2.73-14.29c1.82-4.06,4.2-7.41,7.15-10.07,2.94-2.65,6.17-4.64,9.7-5.97,3.52-1.32,7.02-1.99,10.5-1.99,4.64,0,8.7,.89,12.18,2.67,3.48,1.78,6.5,4.04,9.07,6.77v-3.11c0-1.57,.54-2.92,1.62-4.04,1.08-1.12,2.4-1.68,3.98-1.68s2.92,.56,4.04,1.68c1.12,1.12,1.68,2.47,1.68,4.04v55.56c0,10.44-2.53,18.48-7.58,24.11-5.06,5.63-12.26,8.45-21.63,8.45Zm-.99-40.15c4.31,0,7.95-.95,10.94-2.86,2.98-1.91,5.63-4.02,7.95-6.34v-25.6c-2.32-2.4-4.97-4.54-7.95-6.4-2.98-1.86-6.63-2.8-10.94-2.8-3.9,0-7.46,.79-10.69,2.36-3.23,1.58-5.78,4-7.64,7.27-1.86,3.27-2.8,7.4-2.8,12.37s.93,9.09,2.8,12.37c1.86,3.27,4.41,5.7,7.64,7.27,3.23,1.58,6.79,2.36,10.69,2.36Z"/>
      <g>
        <polygon class="cls-2" points="546.84 49.82 552.6 49.82 552.6 65.15 556.16 65.15 556.16 49.82 561.91 49.82 561.91 46.68 546.84 46.68 546.84 49.82"/>
        <polygon class="cls-2" points="581.68 46.68 575.9 58.53 570.09 46.68 566 46.68 566 65.15 569.27 65.15 569.27 51.95 574.74 63.25 577.03 63.25 582.5 51.95 582.52 65.15 585.74 65.15 585.74 46.68 581.68 46.68"/>
      </g>
      <g>
        <path class="cls-4" d="M108.29,43.61c0,2.97-.54,5.83-1.53,8.46,0,.01-.01,.01-.01,.02h0s-.01,.02-.01,.04c-3.29,8.75-11.55,15.04-21.45,15.44-.33-.07-.66-.12-1-.12-17.22,0-33.98,6.05-47.21,17.01-7.19,5.97-13.12,13.13-17.63,21.33v-21.33c0-35.74,29.09-64.83,64.85-64.85,6.61,.01,12.61,2.7,16.95,7.05,4.36,4.35,7.03,10.34,7.03,16.96Z"/>
        <g>
          <path class="cls-2" d="M193.54,37.56c0,2.45-2,4.45-4.45,4.45H121.09c.16-1.47,.26-2.95,.26-4.45s-.08-2.97-.26-4.43c.01,0,.01-.01,.01-.01h62.86c-1.89-5.91-7.42-10.19-13.94-10.19h-51.62c-1.35-3.17-3.14-6.17-5.34-8.89h56.96c12.97,0,23.52,10.55,23.52,23.52Z"/>
          <path class="cls-2" d="M176.53,42.01c-.87,4.6-3.09,8.83-6.46,12.2-4.44,4.45-10.36,6.89-16.64,6.89h-40.41c2.17-2.7,3.98-5.7,5.33-8.88h35.08c3.91,0,7.59-1.54,10.35-4.31,1.68-1.67,2.9-3.68,3.59-5.88h-46.27v-.02h55.43Z"/>
        </g>
        <path class="cls-2" d="M91.8,35.45c0,5.1-4.12,9.22-9.22,9.22s-9.22-4.12-9.22-9.22,4.13-9.22,9.22-9.22,9.22,4.13,9.22,9.22Z"/>
        <path class="cls-2" d="M121.28,99.75c-.01-.25-.04-.5-.05-.73-.02-.28-.06-.53-.07-.78l-.02-.19c-.02-.16-.04-.34-.08-.61l-.11-.9c-.06-.33-.12-.66-.16-.97-.15-.88-.34-1.76-.56-2.62-.07-.27-.12-.52-.21-.83-.08-.23-.13-.48-.21-.72-2.25-7.55-6.99-14.36-13.29-19.13-1.14-.86-2.34-1.67-3.58-2.4,3.91-2.33,7.31-5.32,10.09-8.76,2.17-2.7,3.98-5.7,5.33-8.88,1.39-3.23,2.31-6.67,2.75-10.19v-.02c.16-1.47,.26-2.95,.26-4.45s-.08-2.97-.26-4.43c.01,0,.01-.01,.01-.01h-.01c-.41-3.55-1.33-6.96-2.69-10.19-1.35-3.17-3.14-6.17-5.34-8.89-.83-1.05-1.75-2.06-2.72-3.03C103.24,3.9,93.8,0,83.78,0c-3.51,0-7,.22-10.42,.65h-.01C53.61,3.11,35.98,12.47,22.96,26.24c-7.11,7.5-12.85,16.34-16.82,26.06C2.18,62.02,0,72.65,0,83.79v50.54c0,.12,0,.23,.01,.36v.12c.04,.23,.07,.46,.12,.69l.04,.12c.06,.22,.12,.42,.22,.68,.09,.22,.2,.43,.32,.65l.08,.11c.12,.2,.23,.38,.39,.58,.15,.18,.31,.33,.48,.5l.12,.09c.16,.15,.34,.29,.53,.41,.19,.13,.39,.25,.63,.36l.09,.05c.42,.19,.87,.33,1.33,.4l.15,.04c.22,.02,.46,.05,.69,.05H83.94c17.19,0,32.12-11.63,36.29-28.27,.07-.26,.12-.51,.19-.78l.18-.83c.51-2.44,.75-4.98,.75-7.53v-.79c0-.28-.01-.56-.02-.83-.01-.23-.04-.47-.05-.75ZM10.42,83.79C10.42,43.35,43.34,10.43,83.8,10.41c7.48,.01,14.27,3.05,19.18,7.97,4.91,4.91,7.96,11.7,7.96,19.18,0,5.36-1.53,10.3-4.18,14.5,0,.01-.01,.01-.01,.02h0s-.01,.02-.01,.04c-.01,0-.01,.01-.01,.01-4.6,7.26-12.58,12.17-21.82,12.53-.36-.07-.75-.13-1.12-.13-19.47,0-38.45,6.85-53.43,19.25-3.99,3.31-7.63,6.94-10.91,10.88-3.41,4.09-6.42,8.53-9.03,13.25v-24.12Zm99.98,23.74l-.14,.62c-.05,.19-.08,.36-.13,.56-.12,.46-.25,.92-.39,1.36-.05,.16-.09,.32-.15,.48-.29,.9-.63,1.79-1.02,2.64-.21,.48-.43,.94-.68,1.4-.6,1.19-1.29,2.3-2.07,3.36-.25,.35-.52,.72-.81,1.06-.07,.09-.13,.18-.2,.26-.31,.39-.63,.76-.99,1.13-.01,.02-.02,.04-.04,.05-.34,.38-.7,.74-1.07,1.08-.38,.38-.76,.74-1.16,1.07-.4,.34-.8,.67-1.22,.99-.41,.33-.85,.63-1.28,.92-.43,.29-.88,.58-1.33,.83-.45,.28-.9,.53-1.37,.76-.23,.12-.47,.24-.7,.35-.48,.23-.96,.45-1.46,.65-.48,.2-.99,.39-1.48,.55-.51,.18-1.01,.33-1.53,.48-.52,.14-1.05,.27-1.57,.38-.36,.08-.74,.15-1.1,.21-.26,.05-.52,.08-.78,.12-.49,.07-.99,.13-1.49,.18-.33,.02-.67,.05-1.01,.06-.43,.02-.86,.04-1.29,.04H12.97c8.51-31.38,37.08-53.59,69.68-54.11,.38,.09,.78,.13,1.14,.13h.15c11.86,0,22.48,7.93,25.87,19.27,.05,.14,.08,.28,.16,.55,.05,.19,.11,.38,.15,.58,.15,.61,.29,1.24,.4,1.9,.04,.19,.07,.4,.12,.66l.11,.78,.05,.54c.01,.12,.02,.23,.02,.35,0,0,.05,.46,.06,.65l.04,.66c0,.13,0,.28,.01,.48,0,.2,.01,.4,.01,.59,0,1.84-.19,3.66-.54,5.4Z"/>
        <path class="cls-1" d="M106.76,52.06c.99-2.63,1.53-5.48,1.53-8.46,0-6.62-2.68-12.61-7.03-16.96-4.33-4.35-10.34-7.03-16.95-7.05-35.76,.02-64.85,29.11-64.85,64.85v10.21c-3.41,4.09-6.42,8.53-9.03,13.25v-24.12C10.42,43.35,43.34,10.43,83.8,10.41c7.48,.01,14.27,3.05,19.18,7.97,4.91,4.91,7.96,11.7,7.96,19.18,0,5.36-1.53,10.3-4.18,14.5Z"/>
        <path class="cls-1" d="M167.37,42.03c-.69,2.21-1.91,4.22-3.59,5.88-2.76,2.77-6.44,4.31-10.35,4.31h-35.08c1.39-3.23,2.31-6.67,2.75-10.19h46.27Z"/>
        <path class="cls-1" d="M183.96,33.12h-62.87c-.41-3.55-1.33-6.96-2.69-10.19h51.62c6.52,0,12.05,4.29,13.94,10.19Z"/>
        <path class="cls-1" d="M110.95,102.12c0,1.84-.2,3.66-.55,5.4l-.13,.62c-.05,.18-.09,.37-.13,.56-.52,2.07-1.29,4.05-2.24,5.89-.6,1.18-1.3,2.3-2.07,3.36-4.96,6.86-13,11.15-21.87,11.15H12.98c8.51-31.38,37.07-53.6,69.68-54.11,.38,.09,.77,.13,1.14,.13h.16c11.86,0,22.48,7.92,25.87,19.26,.04,.14,.08,.29,.16,.55,.05,.2,.1,.38,.16,.58,.14,.62,.29,1.25,.39,1.9,.04,.2,.08,.41,.12,.67l.1,.77,.05,.54c.01,.12,.03,.24,.03,.35,0,0,.04,.46,.05,.64l.04,.66c0,.13,0,.29,.01,.49,0,.2,.01,.39,.01,.59Z"/>
        <path class="cls-2" d="M73.36,.65h-.01C53.6,3.12,35.98,12.47,22.96,26.24h-.01L0,.65H73.36Z"/>
        <path class="cls-3" d="M108.29,107.33c0,3.82-.88,7.42-2.47,10.62-4.96,6.86-13,11.15-21.87,11.15H22.33c8.16-26.46,32.86-45.76,61.99-45.78,6.61,.01,12.62,2.71,16.94,7.06,4.35,4.34,7.03,10.33,7.03,16.96Z"/>
      </g>
    </g>
  </g>
</svg>